<?xml version="1.0" encoding="utf-8"?>
<!-- Generator: Adobe Illustrator 21.0.0, SVG Export Plug-In . SVG Version: 6.00 Build 0)  -->
<svg version="1.1" id="Layer_1" xmlns="http://www.w3.org/2000/svg" xmlns:xlink="http://www.w3.org/1999/xlink" x="0px" y="0px"
	 viewBox="0 0 1171 1171" style="enable-background:new 0 0 1171 1171;" xml:space="preserve">
<style type="text/css">
	.st0{fill:url(#SVGID_1_);}
	.st1{fill:url(#SVGID_2_);}
	.st2{fill:url(#SVGID_3_);}
</style>
<title>Artboard 1</title>
<linearGradient id="SVGID_1_" gradientUnits="userSpaceOnUse" x1="0" y1="579.4998" x2="742" y2="579.4998" gradientTransform="matrix(1 0 0 -1 0 1173)">
	<stop  offset="0" style="stop-color:#D353CE"/>
	<stop  offset="1" style="stop-color:#7B36D4"/>
</linearGradient>
<path class="st0" d="M684.8,395.6C616.9,287.8,498.4,222.5,371,222.5c-204.9,0-371,166.1-371,371s166.1,371,371,371
	c81.6,0.1,160.9-26.8,225.6-76.5c-44.7-29.5-82.6-68.3-111-113.8c-34.3,21.8-74,33.3-114.6,33.3c-118.2,0-214-95.8-214-214
	s95.8-214,214-214c112.7-0.1,206.1,87.3,213.5,199.7c0.3,4.3,0.4,8.7,0.5,13.1c4.9,74.3,47.7,140.8,113.3,176
	C761.1,650.7,755.9,508.4,684.8,395.6L684.8,395.6z"/>
<linearGradient id="SVGID_2_" gradientUnits="userSpaceOnUse" x1="574.86" y1="849.1324" x2="1077.2" y2="849.1324" gradientTransform="matrix(1 0 0 -1 0 1173)">
	<stop  offset="0" style="stop-color:#5C94FF"/>
	<stop  offset="1" style="stop-color:#7B36D4"/>
</linearGradient>
<path class="st1" d="M684.8,395.6c92.1-58.4,213.2-39,282.5,45.2l109.9-109.9c-129.3-144.7-348.3-165.4-502.3-47.4
	C619.1,312.6,656.5,350.8,684.8,395.6z"/>
<linearGradient id="SVGID_3_" gradientUnits="userSpaceOnUse" x1="429.3434" y1="496.035" x2="1171.5" y2="496.035" gradientTransform="matrix(1 0 0 -1 0 1173)">
	<stop  offset="0" style="stop-color:#5C94FF"/>
	<stop  offset="1" style="stop-color:#7B36D4"/>
</linearGradient>
<path class="st2" d="M990,578.5H800v155h150.4c-85.9,82.8-222.6,80.2-305.4-5.7c-35.3-36.7-56.6-84.7-60-135.5
	c-0.3-4.3-0.4-8.7-0.5-13.1c-4.9-73.6-47.3-139.4-112.3-174.3c-95.6,181.2-26.1,405.6,155.1,501.2c53.4,28.1,112.8,42.9,173.2,42.8
	c204.7,0,370.7-165.8,371-370.5H990z"/>
</svg>
